<svg xmlns="http://www.w3.org/2000/svg" viewBox="0 0 32 32">
  <g transform="translate(2, 3) scale(1.17)">
    <path d="M12 2C9.24 2 7 4.24 7 7c-2.76 0-5 2.24-5 5s2.24 5 5 5h5v-1.9H7c-1.71 0-3.1-1.39-3.1-3.1 0-1.59 1.21-2.9 2.77-3.07l1.07-.11.5-.95C8.97 6.54 10.41 5.6 12 5.6c2.03 0 3.8 1.28 4.56 3.17l.35.83.9-.06c.1-.01.19-.01.29-.01 1.51 0 2.7 1.3 2.7 2.9S19.5 15.1 18 15.1h-3V17h3c2.76 0 5-2.24 5-5 0-2.64-2.05-4.78-4.65-4.96C17.45 4.3 14.92 2 12 2z" fill="#2563eb"/>
    <path d="M10 11.5L8 13.5v-1.5H6v-1h2V9.5l2 2zm4 2.5l2-2v1.5h2v1h-2V16l-2-2z" fill="#60a5fa"/>
  </g>
</svg>
